<?xml version="1.0" encoding="utf-8"?>
<!-- Generated by IcoMoon.io -->
<svg version="1.1" xmlns="http://www.w3.org/2000/svg" xmlns:xlink="http://www.w3.org/1999/xlink" width="752" height="120" viewBox="0 0 752 120">
<svg id="icon-abort" width="32" height="32" viewBox="0 0 32 32" x="0" y="0">
<path d="M23.392 27.352l-13.572-23.333c1.87-0.98 3.992-1.543 6.246-1.543 7.457 0 13.525 6.067 13.525 13.525 0 4.757-2.476 8.939-6.199 11.351zM16.066 29.524c-7.457 0-13.523-6.066-13.523-13.523 0-4.76 2.476-8.944 6.202-11.353l13.572 23.333c-1.872 0.981-3.995 1.543-6.251 1.543zM16.066 1.231c-8.143 0-14.768 6.626-14.768 14.771 0 8.143 6.625 14.768 14.768 14.768 8.144 0 14.77-6.625 14.77-14.768 0-8.144-6.626-14.771-14.77-14.771z"></path>
</svg>
<svg id="icon-bend-limit" width="32" height="32" viewBox="0 0 32 32" x="48" y="0">
<path d="M2.667 0.762v28.571h28.571v1.905h-30.476v-30.476h1.905zM25.524 17.27v10.158h-1.905v-10.158h1.905zM8.381 8.381v19.048h-1.905v-19.048h1.905zM14.095 6.095v21.333h-1.905v-21.333h1.905zM19.81 12.19v15.238h-1.905v-15.238h1.905zM27.375 9.85l-6.857-6.857 0.762-0.762 6.857 6.857-0.762 0.762zM21.28 9.85l6.857-6.857-0.762-0.762-6.857 6.857 0.762 0.762z"></path>
</svg>
<svg id="icon-colourmap" width="32" height="32" viewBox="0 0 32 32" x="96" y="0">
<path d="M20.762 0.762h9.524c0.533 0 0.952 0.419 0.952 0.952v28.571c0 0.533-0.419 0.952-0.952 0.952h-28.571c-0.533 0-0.952-0.419-0.952-0.952v-28.571c0-0.533 0.419-0.952 0.952-0.952h19.048zM29.714 12.19h-7.619v7.619h7.619v-7.619zM22.095 21.333v7.619h7.619v-7.619h-7.619zM19.961 12.19h-7.619v7.619h7.619v-7.619zM2.637 2.636v7.619h7.619v-7.619h-7.619zM10.667 12.19h-7.619v7.619h7.619v-7.619zM12.342 21.333v7.619h7.619v-7.619h-7.619zM10.667 21.333h-7.619v7.619h7.619v-7.619zM29.714 2.636h-7.619v7.619h7.619v-7.619z"></path>
</svg>
<svg id="icon-config" width="32" height="32" viewBox="0 0 32 32" x="144" y="0">
<path d="M30.119 2.24v27.84h-27.841v-19.982l4.625-6.724 0.957 0.658-4.422 6.429v18.46h25.521v-25.52h-12.761v14.74l3.377-3.147 0.792 0.843-4.777 4.452-4.753-4.453 0.796-0.841 3.405 3.192v-15.947h15.081zM25.478 23.12v1.16h-18.56v-1.16h18.56z"></path>
</svg>
<svg id="icon-edit-blue" width="32" height="32" viewBox="0 0 32 32" x="192" y="0">
<path d="M3.952 19.658l-1.16 10.27 9.801-1.406 17.696-17.509-8.774-8.582-17.562 17.226zM18.266 8.044l3.25-3.186 6.3 6.16-3.264 3.227-6.287-6.201zM5.607 20.461l11.421-11.201 2.561 2.528-10.15 10.118 1.228 1.222 10.155-10.123 2.496 2.464-11.543 11.42-7.006 1.007 0.837-7.434z"></path>
</svg>
<svg id="icon-edit" width="32" height="32" viewBox="0 0 32 32" x="240" y="0">
<path d="M3.127 19.559l-1.187 10.503 10.023-1.438 18.098-17.906-8.973-8.777-17.961 17.618zM17.766 7.681l3.324-3.258 6.444 6.3-3.338 3.3-6.429-6.342zM4.82 20.38l11.681-11.456 2.619 2.585-10.38 10.348 1.256 1.25 10.386-10.353 2.553 2.52-11.805 11.679-7.165 1.031 0.856-7.603z"></path>
</svg>
<svg id="icon-line-graph" width="31" height="32" viewBox="0 0 31 32" x="288" y="0">
<path d="M2.603 1.044v28.077h27.215v1.94h-29.091v-30.018h1.876zM28.869 14.177v1.831l-7.504 0.045v9.463h-11.257v-5.67h-5.628v-1.917h7.504v5.628h7.504v-9.38l9.38-0.001z"></path>
</svg>
<svg id="icon-restore" width="32" height="32" viewBox="0 0 32 32" x="336" y="0">
<path d="M28.83 14.841c0 7.536-6.131 13.668-13.667 13.668-3.958 0-7.703-1.735-10.285-4.686v4.781h-1.143v-6.79h6.887v1.143h-4.976c2.368 2.773 5.84 4.409 9.517 4.409 6.906 0 12.525-5.618 12.525-12.525h1.143zM26.638 1.143v6.857h-6.857v-1.143h5.009c-2.369-2.855-5.881-4.541-9.627-4.541-6.906 0-12.525 5.618-12.525 12.525h-1.143c0-7.535 6.131-13.667 13.667-13.667 3.993 0 7.75 1.749 10.333 4.731v-4.762h1.143z"></path>
</svg>
<svg id="icon-Scale" width="32" height="32" viewBox="0 0 32 32" x="384" y="0">
<path d="M17.293 15.999l12.038-12.037v6.558h1.827v-8.767c0-0.248-0.102-0.475-0.263-0.64 0 0 0-0.002-0.002-0.005s-0.003 0-0.005-0.002c-0.166-0.161-0.39-0.261-0.636-0.263h-8.773v1.826h6.561l-12.041 12.037zM14.707 15.999l-12.039 12.037v-6.558h-1.827v8.767c0 0.248 0.102 0.475 0.263 0.64 0.002 0.002 0 0.005 0.002 0.007s0.005 0 0.007 0.003c0.166 0.163 0.39 0.263 0.641 0.263h8.768v-1.826h-6.561l12.039-12.040z"></path>
</svg>
<svg id="icon-shutdown" width="32" height="32" viewBox="0 0 32 32" x="432" y="0">
<path d="M26.224 6.32c2.61 2.589 4.048 6.035 4.048 9.709 0 7.546-6.152 13.686-13.714 13.686s-13.714-6.139-13.714-13.686c0-3.67 1.437-7.118 4.046-9.705l0.806 0.809c-2.392 2.373-3.709 5.532-3.709 8.897 0 6.917 5.64 12.545 12.571 12.545s12.571-5.628 12.571-12.545c0-3.367-1.318-6.528-3.711-8.9l0.806-0.809zM17.126 2.286v14.899h-1.143v-14.899h1.143z"></path>
</svg>
<svg id="icon-Stats" width="32" height="32" viewBox="0 0 32 32" x="480" y="0">
<path d="M0 0h32v32h-32v-32zM1.6 2.080v8.235h13.6v-8.235h-13.6zM15.2 11.962h-13.6v8.235h13.6v-8.235zM1.6 21.844v8.235h13.6v-8.235h-13.6zM30.4 2.080h-13.6v8.235h13.6v-8.235zM16.8 11.962v8.235h13.6v-8.235h-13.6zM30.4 21.844h-13.6v8.235h13.6v-8.235z"></path>
</svg>
<svg id="icon-zoom_in" width="24" height="24" viewBox="0 0 24 24" x="0" y="48">
<path d="M12 9.984h-2.016v2.016h-0.984v-2.016h-2.016v-0.984h2.016v-2.016h0.984v2.016h2.016v0.984zM9.516 14.016q1.875 0 3.188-1.313t1.313-3.188-1.313-3.188-3.188-1.313-3.188 1.313-1.313 3.188 1.313 3.188 3.188 1.313zM15.516 14.016l4.969 4.969-1.5 1.5-4.969-4.969v-0.797l-0.281-0.281q-1.781 1.547-4.219 1.547-2.719 0-4.617-1.875t-1.898-4.594 1.898-4.617 4.617-1.898 4.594 1.898 1.875 4.617q0 0.984-0.469 2.227t-1.078 1.992l0.281 0.281h0.797z"></path>
</svg>
<svg id="icon-chart" width="32" height="32" viewBox="0 0 32 32" x="0" y="88">
<path d="M3.987 4h-0.987v24h26v-0.963l-24.996-0.050-0.017-22.987zM17 5c0-0.553-0.448-1-1-1h-3c-0.553 0-1 0.447-1 1v20h5v-20zM11 11c0-0.552-0.448-1-1-1h-3c-0.553 0-1 0.448-1 1v14h5v-14zM23 17c0-0.553-0.448-1-1-1h-3c-0.553 0-1 0.447-1 1v8h5v-8zM28 22h-3c-0.553 0-1 0.447-1 1v2h5v-2c0-0.553-0.448-1-1-1z"></path>
</svg>
</svg>